<?xml version="1.0" standalone="no"?>
<!DOCTYPE svg PUBLIC "-//W3C//DTD SVG 20010904//EN"
 "http://www.w3.org/TR/2001/REC-SVG-20010904/DTD/svg10.dtd">
<svg version="1.0" xmlns="http://www.w3.org/2000/svg"
 width="600.000000pt" height="600.000000pt" viewBox="0 0 600.000000 600.000000"
 preserveAspectRatio="xMidYMid meet">
<metadata>
Created by potrace 1.11, written by Peter Selinger 2001-2013
</metadata>
<g transform="translate(0.000000,600.000000) scale(0.100000,-0.100000)"
fill="#000000" stroke="none">
<path d="M3344 5868 c-9 -18 -49 -96 -89 -173 -188 -364 -298 -580 -549 -1080
-321 -640 -546 -1096 -547 -1110 -1 -5 -10 -22 -20 -37 -10 -14 -19 -28 -19
-31 0 -3 -41 -90 -91 -194 -50 -103 -106 -219 -124 -258 -18 -38 -72 -151
-120 -250 -97 -199 -185 -383 -250 -520 -50 -105 -119 -251 -200 -420 -31 -66
-69 -145 -82 -175 -14 -30 -45 -97 -69 -148 -24 -52 -44 -98 -44 -103 0 -5 -5
-9 -12 -9 -6 0 -9 -3 -6 -6 3 -3 -12 -41 -33 -85 -21 -44 -39 -81 -39 -83 0
-3 -27 -62 -61 -133 -80 -169 -200 -424 -232 -493 -14 -30 -56 -122 -95 -205
-38 -82 -80 -172 -92 -200 -12 -27 -24 -53 -27 -57 -2 -5 226 -8 507 -8 l511
0 20 48 c40 94 352 799 386 872 20 41 36 80 38 85 1 6 14 35 28 65 83 180 135
300 129 300 -4 0 -2 4 4 8 9 6 54 95 54 107 0 2 12 30 26 62 15 32 34 75 43
95 l16 37 523 1 522 0 1 -102 c0 -57 1 -142 2 -189 l1 -87 36 27 c19 14 37 28
40 31 5 6 141 117 220 180 24 19 55 45 69 57 14 13 31 26 36 31 53 41 208 168
229 187 6 6 59 49 117 97 58 48 111 93 117 101 10 11 -18 42 -146 165 -86 83
-177 169 -202 192 -25 23 -105 99 -179 168 -74 70 -148 141 -166 157 -17 17
-61 57 -96 91 -35 33 -69 63 -75 67 -7 4 -10 -46 -8 -164 1 -121 -1 -169 -9
-170 -11 -2 -657 -5 -657 -3 0 0 9 19 20 42 18 38 104 223 167 362 14 30 43
92 64 138 22 46 39 85 39 87 0 1 26 59 59 126 32 68 68 144 79 169 11 25 42
90 68 145 26 55 48 102 48 105 1 3 23 49 49 104 26 54 47 103 47 108 0 5 4 7
8 4 5 -3 10 -132 11 -288 1 -156 3 -379 4 -495 l2 -213 35 -31 c37 -33 226
-209 290 -269 93 -88 206 -194 315 -295 66 -60 149 -138 185 -172 36 -34 67
-60 69 -58 4 5 4 83 -4 470 -4 171 -8 463 -10 650 -3 187 -7 540 -11 785 -3
245 -6 754 -7 1132 l-2 688 -422 0 -422 0 -17 -32z"/>
<path d="M2806 5223 c-1 -1 -29 -4 -62 -8 -32 -3 -71 -7 -84 -10 -14 -3 -43
-7 -65 -10 -116 -15 -492 -117 -530 -144 -5 -4 -32 -16 -60 -26 -49 -17 -305
-144 -315 -155 -3 -3 -27 -19 -55 -34 -199 -114 -498 -376 -650 -571 -16 -21
-39 -50 -51 -64 -33 -41 -131 -184 -155 -227 -64 -112 -128 -237 -149 -290
-13 -32 -26 -63 -30 -69 -6 -8 -57 -154 -67 -190 -1 -5 -12 -41 -23 -80 -22
-77 -22 -76 -44 -189 -33 -164 -41 -253 -41 -471 0 -163 4 -234 20 -375 3 -21
13 -74 50 -246 11 -49 84 -274 104 -319 5 -11 17 -38 26 -60 25 -56 97 -202
124 -250 49 -87 173 -265 182 -260 4 3 75 140 156 303 l149 298 -32 69 c-47
101 -120 317 -139 408 -3 15 -7 38 -10 52 -12 62 -16 84 -23 140 -9 77 -9 392
0 470 13 108 46 258 77 348 11 31 17 57 14 57 -3 0 -1 6 4 13 5 6 20 39 33 72
13 33 27 64 32 70 4 5 8 17 8 27 0 10 5 18 12 18 6 0 8 3 5 7 -4 3 -3 11 2 17
5 6 25 43 46 81 110 204 293 420 490 577 55 44 108 86 118 94 9 8 20 14 23 14
3 0 24 12 47 28 67 43 76 48 182 101 90 45 151 73 165 75 3 1 25 9 50 18 62
23 170 56 200 61 14 3 31 7 39 9 15 3 53 73 226 416 56 111 97 203 91 203 -20
3 -88 4 -90 2z"/>
<path d="M4299 4878 c-3 -10 -12 -626 -10 -675 1 -7 20 -29 43 -50 196 -179
342 -369 452 -586 84 -166 146 -330 162 -427 3 -19 9 -39 12 -45 7 -11 9 -21
16 -70 3 -17 7 -42 10 -55 13 -61 19 -147 20 -300 1 -161 -4 -227 -28 -365 -5
-31 -6 -35 -25 -118 -30 -131 -159 -457 -181 -457 -4 0 -7 -6 -7 -13 0 -13
-78 -143 -100 -165 -7 -7 -13 -16 -13 -20 0 -4 -13 -21 -28 -39 -15 -17 -38
-45 -50 -62 -13 -17 -41 -50 -63 -73 -21 -24 -39 -46 -39 -50 0 -5 -4 -8 -8
-8 -5 0 -38 -28 -73 -63 -154 -151 -266 -230 -447 -318 -70 -34 -136 -65 -147
-69 -11 -5 -36 -14 -55 -21 -19 -8 -39 -15 -45 -16 -5 -1 -48 -14 -95 -29 -47
-14 -103 -28 -125 -30 -21 -3 -43 -8 -47 -10 -9 -6 -30 -10 -98 -18 -25 -3
-65 -9 -90 -13 -94 -14 -383 -7 -494 13 -17 2 -44 7 -61 10 -29 4 -59 10 -100
19 -155 32 -392 122 -536 202 -3 2 -42 -76 -87 -174 -45 -98 -98 -214 -118
-258 -21 -44 -38 -84 -38 -90 -2 -13 166 -95 185 -91 3 0 12 -4 20 -11 32 -26
317 -117 449 -143 30 -6 66 -14 80 -17 31 -6 54 -10 225 -33 64 -9 513 -6 555
3 14 3 45 8 70 11 25 3 56 8 70 11 29 6 67 13 113 20 17 3 40 8 49 11 9 3 27
7 40 9 104 20 372 116 533 190 75 35 214 112 225 125 3 3 44 32 92 64 47 32
94 65 105 74 10 10 34 29 53 43 40 30 56 45 159 137 92 82 133 124 180 182 20
25 39 47 42 50 3 3 34 43 68 90 33 47 66 90 71 97 6 7 10 14 10 17 0 3 14 25
30 49 16 25 30 49 30 55 0 6 4 12 8 14 7 2 127 242 152 303 34 83 91 254 105
315 0 3 5 23 10 45 4 22 9 45 11 50 3 11 21 102 28 145 3 14 5 25 6 25 2 0 13
121 14 162 0 24 3 43 6 43 12 0 -2 421 -15 470 -2 8 -7 38 -10 65 -5 53 -16
108 -42 215 -9 36 -17 72 -17 80 -1 9 -4 20 -8 25 -3 6 -15 44 -27 85 -32 106
-123 322 -182 432 -183 336 -447 645 -734 857 -33 25 -76 56 -95 70 -67 50
-168 108 -171 99z"/>
<path d="M4205 2032 c-17 -15 -51 -43 -75 -62 -52 -42 -227 -184 -255 -208
-11 -10 -131 -106 -267 -215 l-248 -197 0 -65 0 -65 453 2 452 3 -3 155 c-1
85 -4 214 -7 285 -2 72 -4 190 -4 263 -1 72 -4 132 -8 132 -5 0 -22 -13 -38
-28z"/>
</g>
</svg>
